<svg width="20" height="20" viewBox="0 0 20 20" fill="none" xmlns="http://www.w3.org/2000/svg">
<path d="M15.45 3.43341L10.8667 1.71674C10.3917 1.54174 9.61671 1.54174 9.14171 1.71674L4.55837 3.43341C3.67504 3.76674 2.95837 4.80008 2.95837 5.74174V12.4917C2.95837 13.1667 3.40004 14.0584 3.94171 14.4584L8.52504 17.8834C9.33337 18.4917 10.6584 18.4917 11.4667 17.8834L16.05 14.4584C16.5917 14.0501 17.0334 13.1667 17.0334 12.4917V5.74174C17.0417 4.80008 16.325 3.76674 15.45 3.43341ZM12.9 8.10008L9.31671 11.6834C9.19171 11.8084 9.03337 11.8667 8.87504 11.8667C8.71671 11.8667 8.55837 11.8084 8.43337 11.6834L7.10004 10.3334C6.85837 10.0917 6.85837 9.69174 7.10004 9.45008C7.34171 9.20841 7.74171 9.20841 7.98337 9.45008L8.88337 10.3501L12.025 7.20841C12.2667 6.96674 12.6667 6.96674 12.9084 7.20841C13.15 7.45008 13.15 7.85841 12.9 8.10008Z" fill="#868686"/>
</svg>
