<svg width="20" height="20" viewBox="0 0 20 20" fill="none" xmlns="http://www.w3.org/2000/svg">
<path d="M17.0833 8.49167H14.675C12.7 8.49167 11.0916 6.88334 11.0916 4.90834V2.50001C11.0916 2.04167 10.7166 1.66667 10.2583 1.66667H6.72498C4.15831 1.66667 2.08331 3.33334 2.08331 6.30834V13.6917C2.08331 16.6667 4.15831 18.3333 6.72498 18.3333H13.275C15.8416 18.3333 17.9166 16.6667 17.9166 13.6917V9.325C17.9166 8.86667 17.5416 8.49167 17.0833 8.49167Z" fill="#868686"/>
<path d="M13.1666 1.84166C12.8249 1.49999 12.2333 1.73332 12.2333 2.20832V5.11666C12.2333 6.33332 13.2666 7.34166 14.5249 7.34166C15.3166 7.34999 16.4166 7.34999 17.3583 7.34999C17.8333 7.34999 18.0833 6.79166 17.7499 6.45832C16.5499 5.24999 14.3999 3.07499 13.1666 1.84166Z" fill="#868686"/>
</svg>
