<svg width="20" height="20" viewBox="0 0 20 20" fill="none" xmlns="http://www.w3.org/2000/svg">
<path d="M16.4916 3.51672C14.0249 1.05839 10.0249 1.05839 7.57492 3.51672C5.84992 5.22506 5.33325 7.68339 5.99992 9.85006L2.08325 13.7667C1.80825 14.0501 1.61659 14.6084 1.67492 15.0084L1.92492 16.8251C2.01659 17.4251 2.57492 17.9917 3.17492 18.0751L4.99159 18.3251C5.39159 18.3834 5.94992 18.2001 6.23325 17.9084L6.91659 17.2251C7.08325 17.0667 7.08325 16.8001 6.91659 16.6334L5.29992 15.0167C5.05825 14.7751 5.05825 14.3751 5.29992 14.1334C5.54159 13.8917 5.94159 13.8917 6.18325 14.1334L7.80825 15.7584C7.96659 15.9167 8.23325 15.9167 8.39158 15.7584L10.1583 14.0001C12.3166 14.6751 14.7749 14.1501 16.4916 12.4417C18.9499 9.98339 18.9499 5.97506 16.4916 3.51672ZM12.0833 10.0001C10.9333 10.0001 9.99992 9.06672 9.99992 7.91672C9.99992 6.76672 10.9333 5.83339 12.0833 5.83339C13.2333 5.83339 14.1666 6.76672 14.1666 7.91672C14.1666 9.06672 13.2333 10.0001 12.0833 10.0001Z" fill="#868686"/>
</svg>
