<svg width="20" height="20" viewBox="0 0 20 20" fill="none" xmlns="http://www.w3.org/2000/svg">
<path d="M15 1.66667H5C3.61667 1.66667 2.5 2.775 2.5 4.14167V13.2333C2.5 14.6 3.61667 15.7167 5 15.7167H5.63333C6.29167 15.7167 6.93333 15.975 7.4 16.4417L8.825 17.85C9.475 18.4917 10.525 18.4917 11.175 17.85L12.6 16.4417C13.0667 15.975 13.7083 15.7167 14.3667 15.7167H15C16.3833 15.7167 17.5 14.6 17.5 13.2333V4.14167C17.5 2.775 16.3833 1.66667 15 1.66667ZM10 4.625C10.9 4.625 11.625 5.35833 11.625 6.25C11.625 7.13333 10.925 7.84167 10.0583 7.875C10.025 7.875 9.975 7.875 9.93333 7.875C9.05833 7.84167 8.36667 7.13333 8.36667 6.25C8.375 5.35833 9.1 4.625 10 4.625ZM12.2917 12.2417C11.0333 13.0833 8.96667 13.0833 7.70833 12.2417C6.6 11.5083 6.6 10.2917 7.70833 9.55C8.975 8.70833 11.0417 8.70833 12.2917 9.55C13.4 10.2917 13.4 11.5 12.2917 12.2417Z" fill="#868686"/>
</svg>
