<svg width="20" height="20" viewBox="0 0 20 20" fill="none" xmlns="http://www.w3.org/2000/svg">
<path d="M9.16656 1.66656H7.4999C3.33323 1.66656 1.66656 3.33323 1.66656 7.4999V12.4999C1.66656 16.6666 3.33323 18.3332 7.4999 18.3332H12.4999C16.6666 18.3332 18.3332 16.6666 18.3332 12.4999V10.8332" stroke="#868686" stroke-width="1.5" stroke-linecap="round" stroke-linejoin="round"/>
<path d="M13.3666 2.51657L6.7999 9.08324C6.5499 9.33324 6.2999 9.82491 6.2499 10.1832L5.89157 12.6916C5.75823 13.5999 6.3999 14.2332 7.30823 14.1082L9.81657 13.7499C10.1666 13.6999 10.6582 13.4499 10.9166 13.1999L17.4832 6.63324C18.6166 5.49991 19.1499 4.18324 17.4832 2.51657C15.8166 0.849905 14.4999 1.38324 13.3666 2.51657Z" stroke="#868686" stroke-width="1.5" stroke-miterlimit="10" stroke-linecap="round" stroke-linejoin="round"/>
<path d="M12.4249 3.45825C12.9833 5.44992 14.5416 7.00825 16.5416 7.57492" stroke="#868686" stroke-width="1.5" stroke-miterlimit="10" stroke-linecap="round" stroke-linejoin="round"/>
</svg>
