<svg width="20" height="20" viewBox="0 0 20 20" fill="none" xmlns="http://www.w3.org/2000/svg">
<path d="M12.9833 10.0001C12.9833 11.6501 11.65 12.9834 10 12.9834C8.35 12.9834 7.01666 11.6501 7.01666 10.0001C7.01666 8.35006 8.35 7.01672 10 7.01672C11.65 7.01672 12.9833 8.35006 12.9833 10.0001Z" stroke="#868686" stroke-width="1.5" stroke-linecap="round" stroke-linejoin="round"/>
<path d="M9.99999 16.8916C12.9417 16.8916 15.6833 15.1583 17.5917 12.1583C18.3417 10.9833 18.3417 9.00831 17.5917 7.83331C15.6833 4.83331 12.9417 3.09998 9.99999 3.09998C7.05832 3.09998 4.31666 4.83331 2.40833 7.83331C1.65833 9.00831 1.65833 10.9833 2.40833 12.1583C4.31666 15.1583 7.05832 16.8916 9.99999 16.8916Z" stroke="#868686" stroke-width="1.5" stroke-linecap="round" stroke-linejoin="round"/>
</svg>
