<svg width="20" height="20" viewBox="0 0 20 20" fill="none" xmlns="http://www.w3.org/2000/svg">
<path d="M4.16669 6.66666C2.78335 6.66666 1.66669 7.78332 1.66669 9.16666V15.8333C1.66669 17.2167 2.78335 18.3333 4.16669 18.3333H5.41669C6.33335 18.3333 7.08335 17.5833 7.08335 16.6667V8.33332C7.08335 7.41666 6.33335 6.66666 5.41669 6.66666H4.16669ZM5.00002 14.1667C5.00002 14.5083 4.71669 14.7917 4.37502 14.7917C4.03335 14.7917 3.75002 14.5083 3.75002 14.1667V10.8333C3.75002 10.4917 4.03335 10.2083 4.37502 10.2083C4.71669 10.2083 5.00002 10.4917 5.00002 10.8333V14.1667Z" fill="#868686"/>
<path d="M15.8333 1.66666H10.8333C9.44998 1.66666 8.33331 2.78332 8.33331 4.16666V15.8333C8.33331 17.2167 9.44998 18.3333 10.8333 18.3333H11.25C11.4833 18.3333 11.6666 18.15 11.6666 17.9167V15C11.6666 14.5417 12.0416 14.1667 12.5 14.1667H14.1666C14.625 14.1667 15 14.5417 15 15V17.9167C15 18.15 15.1833 18.3333 15.4166 18.3333H15.8333C17.2166 18.3333 18.3333 17.2167 18.3333 15.8333V4.16666C18.3333 2.78332 17.2166 1.66666 15.8333 1.66666ZM12.2916 10.8333C12.2916 11.175 12.0083 11.4583 11.6666 11.4583C11.325 11.4583 11.0416 11.175 11.0416 10.8333V6.66666C11.0416 6.32499 11.325 6.04166 11.6666 6.04166C12.0083 6.04166 12.2916 6.32499 12.2916 6.66666V10.8333ZM15.625 10.8333C15.625 11.175 15.3416 11.4583 15 11.4583C14.6583 11.4583 14.375 11.175 14.375 10.8333V6.66666C14.375 6.32499 14.6583 6.04166 15 6.04166C15.3416 6.04166 15.625 6.32499 15.625 6.66666V10.8333Z" fill="#868686"/>
</svg>
