<svg width="20" height="20" viewBox="0 0 20 20" fill="none" xmlns="http://www.w3.org/2000/svg">
<path d="M10.8334 18.3333H4.16669C2.50002 18.3333 1.66669 17.5 1.66669 15.8333V9.16666C1.66669 7.49999 2.50002 6.66666 4.16669 6.66666H8.33335V15.8333C8.33335 17.5 9.16669 18.3333 10.8334 18.3333Z" stroke="#868686" stroke-width="1.5" stroke-miterlimit="10" stroke-linecap="round" stroke-linejoin="round"/>
<path d="M11.6667 6.66666V10.8333" stroke="#868686" stroke-width="1.5" stroke-miterlimit="10" stroke-linecap="round" stroke-linejoin="round"/>
<path d="M15 6.66666V10.8333" stroke="#868686" stroke-width="1.5" stroke-miterlimit="10" stroke-linecap="round" stroke-linejoin="round"/>
<path d="M14.1667 14.1667H12.5C12.0417 14.1667 11.6667 14.5417 11.6667 15V18.3333H15V15C15 14.5417 14.625 14.1667 14.1667 14.1667Z" stroke="#868686" stroke-width="1.5" stroke-miterlimit="10" stroke-linecap="round" stroke-linejoin="round"/>
<path d="M5 10.8333V14.1667" stroke="#868686" stroke-width="1.5" stroke-miterlimit="10" stroke-linecap="round" stroke-linejoin="round"/>
<path d="M8.33331 15.8333V4.16666C8.33331 2.49999 9.16665 1.66666 10.8333 1.66666H15.8333C17.5 1.66666 18.3333 2.49999 18.3333 4.16666V15.8333C18.3333 17.5 17.5 18.3333 15.8333 18.3333H10.8333C9.16665 18.3333 8.33331 17.5 8.33331 15.8333Z" stroke="#868686" stroke-width="1.5" stroke-miterlimit="10" stroke-linecap="round" stroke-linejoin="round"/>
</svg>
