<svg width="20" height="20" viewBox="0 0 20 20" fill="none" xmlns="http://www.w3.org/2000/svg">
<path d="M17.5 4.98332C14.725 4.70832 11.9333 4.56665 9.15 4.56665C7.5 4.56665 5.85 4.64998 4.2 4.81665L2.5 4.98332" stroke="#868686" stroke-width="1.5" stroke-linecap="round" stroke-linejoin="round"/>
<path d="M7.08344 4.14156L7.26677 3.0499C7.4001 2.25823 7.5001 1.66656 8.90843 1.66656H11.0918C12.5001 1.66656 12.6084 2.29157 12.7334 3.05823L12.9168 4.14156" stroke="#868686" stroke-width="1.5" stroke-linecap="round" stroke-linejoin="round"/>
<path d="M15.7084 7.61658L15.1667 16.0082C15.075 17.3166 15 18.3332 12.675 18.3332H7.32502C5.00002 18.3332 4.92502 17.3166 4.83335 16.0082L4.29169 7.61658" stroke="#868686" stroke-width="1.5" stroke-linecap="round" stroke-linejoin="round"/>
<path d="M8.6084 13.75H11.3834" stroke="#868686" stroke-width="1.5" stroke-linecap="round" stroke-linejoin="round"/>
<path d="M7.91656 10.4166H12.0832" stroke="#868686" stroke-width="1.5" stroke-linecap="round" stroke-linejoin="round"/>
</svg>
