<svg width="20" height="20" viewBox="0 0 20 20" fill="none" xmlns="http://www.w3.org/2000/svg">
<path d="M15 15.7167H14.3667C13.7 15.7167 13.0667 15.975 12.6 16.4417L11.175 17.85C10.525 18.4917 9.46668 18.4917 8.81668 17.85L7.39166 16.4417C6.925 15.975 6.28333 15.7167 5.625 15.7167H5C3.61667 15.7167 2.5 14.6083 2.5 13.2417V4.14167C2.5 2.775 3.61667 1.66667 5 1.66667H15C16.3833 1.66667 17.5 2.775 17.5 4.14167V13.2333C17.5 14.6 16.3833 15.7167 15 15.7167Z" stroke="#868686" stroke-width="1.5" stroke-miterlimit="10" stroke-linecap="round" stroke-linejoin="round"/>
<path d="M10.0583 7.45833C10.025 7.45833 9.97498 7.45833 9.93331 7.45833C9.05831 7.425 8.36664 6.71667 8.36664 5.83333C8.36664 4.93333 9.09165 4.20833 9.99165 4.20833C10.8916 4.20833 11.6167 4.94167 11.6167 5.83333C11.625 6.71667 10.9333 7.43333 10.0583 7.45833Z" stroke="#868686" stroke-width="1.5" stroke-linecap="round" stroke-linejoin="round"/>
<path d="M7.70833 9.96667C6.59999 10.7083 6.59999 11.9167 7.70833 12.6583C8.96666 13.5 11.0333 13.5 12.2917 12.6583C13.4 11.9167 13.4 10.7083 12.2917 9.96667C11.0333 9.13333 8.97499 9.13333 7.70833 9.96667Z" stroke="#868686" stroke-width="1.5" stroke-linecap="round" stroke-linejoin="round"/>
</svg>
