<svg width="20" height="20" viewBox="0 0 20 20" fill="none" xmlns="http://www.w3.org/2000/svg">
<path d="M16.4916 12.4416C14.7749 14.15 12.3166 14.675 10.1583 14L6.23325 17.9166C5.94992 18.2083 5.39159 18.3833 4.99159 18.325L3.17492 18.075C2.57492 17.9916 2.01659 17.425 1.92492 16.825L1.67492 15.0083C1.61659 14.6083 1.80825 14.05 2.08325 13.7666L5.99992 9.84995C5.33325 7.68328 5.84992 5.22495 7.56659 3.51662C10.0249 1.05828 14.0166 1.05828 16.4833 3.51662C18.9499 5.97495 18.9499 9.98328 16.4916 12.4416Z" stroke="#868686" stroke-width="1.5" stroke-miterlimit="10" stroke-linecap="round" stroke-linejoin="round"/>
<path d="M5.74158 14.575L7.65824 16.4917" stroke="#868686" stroke-width="1.5" stroke-miterlimit="10" stroke-linecap="round" stroke-linejoin="round"/>
<path d="M12.0833 9.16667C12.7737 9.16667 13.3333 8.60703 13.3333 7.91667C13.3333 7.22632 12.7737 6.66667 12.0833 6.66667C11.393 6.66667 10.8333 7.22632 10.8333 7.91667C10.8333 8.60703 11.393 9.16667 12.0833 9.16667Z" stroke="#868686" stroke-width="1.5" stroke-linecap="round" stroke-linejoin="round"/>
</svg>
