<svg width="20" height="20" viewBox="0 0 20 20" fill="none" xmlns="http://www.w3.org/2000/svg">
<path d="M16.0083 5.30001C15.1416 3.55001 13.4666 2.25834 11.525 1.83334C9.49162 1.38334 7.40829 1.86668 5.81662 3.15001C4.21662 4.42501 3.30829 6.33334 3.30829 8.37501C3.30829 10.5333 4.59996 12.7917 6.54996 14.1V14.7917C6.54162 15.025 6.53329 15.3833 6.81662 15.675C7.10829 15.975 7.54162 16.0083 7.88329 16.0083H12.1583C12.6083 16.0083 12.95 15.8833 13.1833 15.65C13.5 15.325 13.4916 14.9083 13.4833 14.6833V14.1C16.0666 12.3583 17.6916 8.68334 16.0083 5.30001Z" fill="#868686"/>
<path d="M12.7166 18.3333C12.6666 18.3333 12.6083 18.3249 12.5583 18.3083C10.8833 17.8333 9.12492 17.8333 7.44992 18.3083C7.14159 18.3916 6.81659 18.2166 6.73326 17.9083C6.64159 17.5999 6.82493 17.2749 7.13326 17.1916C9.01659 16.6583 10.9999 16.6583 12.8833 17.1916C13.1916 17.2833 13.3749 17.5999 13.2833 17.9083C13.1999 18.1666 12.9666 18.3333 12.7166 18.3333Z" fill="#868686"/>
</svg>
