<svg width="20" height="20" viewBox="0 0 20 20" fill="none" xmlns="http://www.w3.org/2000/svg">
<path d="M15.8334 5.83334C15.7167 5.83334 15.625 5.92501 15.625 6.04168V10C15.625 10.3417 15.3417 10.625 15 10.625C14.6584 10.625 14.375 10.3417 14.375 10V6.04168C14.375 5.92501 14.2834 5.83334 14.1667 5.83334H12.5C12.3834 5.83334 12.2917 5.92501 12.2917 6.04168V8.00001C12.2917 8.34168 12.0084 8.62501 11.6667 8.62501C11.325 8.62501 11.0417 8.34168 11.0417 8.00001V6.04168C11.0417 5.92501 10.95 5.83334 10.8334 5.83334H9.20002C9.08335 5.83334 8.99169 5.92501 8.99169 6.04168L8.95835 10.0083C8.95835 10.35 8.67502 10.625 8.33335 10.625C8.33335 10.625 8.33335 10.625 8.32502 10.625C7.98335 10.625 7.70835 10.3417 7.70835 9.99168L7.74169 6.04168C7.74169 5.92501 7.65002 5.83334 7.53335 5.83334H5.83335C5.71669 5.83334 5.62502 5.92501 5.62502 6.04168V9.00001C5.62502 9.34168 5.34169 9.62501 5.00002 9.62501C4.65835 9.62501 4.37502 9.34168 4.37502 9.00001V6.04168C4.37502 5.92501 4.28335 5.83334 4.16669 5.83334C2.78335 5.83334 1.66669 6.95001 1.66669 8.33334V11.6667C1.66669 13.05 2.78335 14.1667 4.16669 14.1667H15.8334C17.2167 14.1667 18.3334 13.05 18.3334 11.6667V8.33334C18.3334 6.95001 17.2167 5.83334 15.8334 5.83334Z" fill="#868686"/>
</svg>
